<svg xmlns="http://www.w3.org/2000/svg"
     width="64"
     height="64"
     viewBox="0 0 64 64"
     fill="none"
     stroke="currentColor"
     stroke-width="2.5"
     stroke-linecap="round"
     stroke-linejoin="round">

  <!-- Rocket Body -->
  <path d="M32 10
           C42 16 46 28 44 40
           L36 48
           L28 48
           L20 40
           C18 28 22 16 32 10Z"/>

  <!-- Window -->
  <circle cx="32" cy="26" r="4"/>

  <!-- Fins -->
  <path d="M20 40L14 46L22 46"/>
  <path d="M44 40L50 46L42 46"/>

  <!-- Flame -->
  <path d="M32 48
           C35 52 35 57 32 60
           C29 57 29 52 32 48Z"/>

  <!-- Speed lines -->
  <path d="M12 20H20"/>
  <path d="M8 30H16"/>
  <path d="M44 14L48 10"/>
  <path d="M48 22L56 22"/>

</svg>
